<mxfile host="app.diagrams.net" modified="2022-03-26T21:34:16.593Z" agent="5.0 (Windows NT 10.0; Win64; x64) AppleWebKit/537.36 (KHTML, like Gecko) Chrome/99.0.4844.82 Safari/537.36" etag="RUuf6eOJp2a7s4XU2LQQ" version="17.2.4" type="github">
  <diagram id="ph6kFKLF23NnV0sInsYU" name="Page-1">
    <mxGraphModel dx="2272" dy="737" grid="1" gridSize="10" guides="1" tooltips="1" connect="1" arrows="1" fold="1" page="1" pageScale="1" pageWidth="850" pageHeight="1100" math="0" shadow="0">
      <root>
        <mxCell id="0" />
        <mxCell id="1" parent="0" />
        <mxCell id="e25fCHqF_XSICWRYhGp0-45" style="edgeStyle=orthogonalEdgeStyle;rounded=1;orthogonalLoop=1;jettySize=auto;html=1;exitX=1.004;exitY=0.167;exitDx=0;exitDy=0;entryX=0.372;entryY=0.002;entryDx=0;entryDy=0;labelBackgroundColor=default;fontFamily=Helvetica;fontSize=14;fontColor=#82B366;startArrow=none;startFill=0;endArrow=classic;strokeColor=default;strokeWidth=2;entryPerimeter=0;exitPerimeter=0;" parent="1" source="e25fCHqF_XSICWRYhGp0-44" target="e25fCHqF_XSICWRYhGp0-38" edge="1">
          <mxGeometry relative="1" as="geometry">
            <Array as="points">
              <mxPoint x="510" y="160" />
            </Array>
          </mxGeometry>
        </mxCell>
        <mxCell id="e25fCHqF_XSICWRYhGp0-47" value="&lt;font style=&quot;font-size: 12px&quot; color=&quot;#333333&quot;&gt;Authentication/SSO (AuthN)&lt;/font&gt;" style="edgeLabel;html=1;align=center;verticalAlign=middle;resizable=0;points=[];fontSize=12;fontFamily=Helvetica;fontColor=#82B366;fontStyle=1" parent="e25fCHqF_XSICWRYhGp0-45" vertex="1" connectable="0">
          <mxGeometry x="-0.3269" relative="1" as="geometry">
            <mxPoint x="20" y="-10" as="offset" />
          </mxGeometry>
        </mxCell>
        <mxCell id="e25fCHqF_XSICWRYhGp0-44" value="&lt;font style=&quot;font-size: 15px&quot; color=&quot;#1a1a1a&quot;&gt;AnyCompany Users&lt;/font&gt;" style="rounded=0;whiteSpace=wrap;html=1;dashed=1;sketch=0;fontFamily=Helvetica;fontSize=11;fontColor=#82B366;strokeColor=#333333;strokeWidth=2;fillColor=#FFFFFF;gradientColor=#ffffff;dashPattern=1 1;labelPosition=center;verticalLabelPosition=top;align=center;verticalAlign=bottom;" parent="1" vertex="1">
          <mxGeometry x="-388" y="140" width="668" height="120" as="geometry" />
        </mxCell>
        <mxCell id="e25fCHqF_XSICWRYhGp0-1" value="B2B Users" style="sketch=0;outlineConnect=0;fontColor=#232F3E;gradientColor=none;strokeColor=#232F3E;fillColor=#ffffff;dashed=0;verticalLabelPosition=top;verticalAlign=bottom;align=center;html=1;fontSize=12;fontStyle=1;aspect=fixed;shape=mxgraph.aws4.resourceIcon;resIcon=mxgraph.aws4.users;labelPosition=center;" parent="1" vertex="1">
          <mxGeometry x="-77.5" y="170" width="60" height="60" as="geometry" />
        </mxCell>
        <mxCell id="e25fCHqF_XSICWRYhGp0-2" value="B2C Users" style="sketch=0;outlineConnect=0;fontColor=#232F3E;gradientColor=none;strokeColor=#232F3E;fillColor=#ffffff;dashed=0;verticalLabelPosition=top;verticalAlign=bottom;align=center;html=1;fontSize=12;fontStyle=1;aspect=fixed;shape=mxgraph.aws4.resourceIcon;resIcon=mxgraph.aws4.users;labelPosition=center;" parent="1" vertex="1">
          <mxGeometry x="136" y="170" width="60" height="60" as="geometry" />
        </mxCell>
        <mxCell id="e25fCHqF_XSICWRYhGp0-9" value="AnyCompany HRServices Platform" style="rounded=0;whiteSpace=wrap;html=1;fillColor=#FFFFFF;fontColor=#333333;strokeColor=#663300;strokeWidth=2;labelPosition=center;verticalLabelPosition=bottom;align=center;verticalAlign=top;fontStyle=1;fontSize=14;" parent="1" vertex="1">
          <mxGeometry x="-388" y="330" width="668" height="270" as="geometry" />
        </mxCell>
        <mxCell id="e25fCHqF_XSICWRYhGp0-22" value="Employee Persona" style="edgeStyle=orthogonalEdgeStyle;rounded=1;orthogonalLoop=1;jettySize=auto;html=1;entryX=0.5;entryY=0;entryDx=0;entryDy=0;strokeWidth=2;fontStyle=1" parent="1" source="e25fCHqF_XSICWRYhGp0-3" target="e25fCHqF_XSICWRYhGp0-13" edge="1">
          <mxGeometry x="-0.3333" y="-5" relative="1" as="geometry">
            <mxPoint as="offset" />
          </mxGeometry>
        </mxCell>
        <mxCell id="e25fCHqF_XSICWRYhGp0-3" value="&lt;font style=&quot;font-size: 13px&quot;&gt;&lt;b&gt;B2B2C Users&lt;/b&gt;&lt;/font&gt;" style="sketch=0;outlineConnect=0;fontColor=#232F3E;gradientColor=none;strokeColor=#232F3E;fillColor=#ffffff;dashed=0;verticalLabelPosition=top;verticalAlign=bottom;align=center;html=1;fontSize=12;fontStyle=0;aspect=fixed;shape=mxgraph.aws4.resourceIcon;resIcon=mxgraph.aws4.users;labelPosition=center;" parent="1" vertex="1">
          <mxGeometry x="-295" y="180" width="60" height="60" as="geometry" />
        </mxCell>
        <mxCell id="e25fCHqF_XSICWRYhGp0-14" value="Employment Services" style="rounded=0;whiteSpace=wrap;html=1;labelPosition=center;verticalLabelPosition=bottom;align=center;verticalAlign=middle;strokeColor=#d6b656;fillColor=#FFFFFF;" parent="1" vertex="1">
          <mxGeometry x="71" y="360" width="190" height="140" as="geometry" />
        </mxCell>
        <mxCell id="e25fCHqF_XSICWRYhGp0-21" value="Employer Services" style="rounded=0;whiteSpace=wrap;html=1;labelPosition=center;verticalLabelPosition=bottom;align=center;verticalAlign=top;fillColor=#FFFFFF;strokeColor=#6c8ebf;" parent="1" vertex="1">
          <mxGeometry x="-146" y="360" width="197" height="80" as="geometry" />
        </mxCell>
        <mxCell id="e25fCHqF_XSICWRYhGp0-16" value="Verification" style="rounded=0;whiteSpace=wrap;html=1;fillColor=#fff2cc;strokeColor=#d6b656;" parent="1" vertex="1">
          <mxGeometry x="101" y="380" width="130" height="40" as="geometry" />
        </mxCell>
        <mxCell id="e25fCHqF_XSICWRYhGp0-17" value="Employment History" style="rounded=0;whiteSpace=wrap;html=1;fillColor=#fff2cc;strokeColor=#d6b656;" parent="1" vertex="1">
          <mxGeometry x="101" y="440" width="130" height="40" as="geometry" />
        </mxCell>
        <mxCell id="e25fCHqF_XSICWRYhGp0-18" style="edgeStyle=orthogonalEdgeStyle;rounded=1;orthogonalLoop=1;jettySize=auto;html=1;entryX=0.5;entryY=0;entryDx=0;entryDy=0;strokeWidth=2;" parent="1" source="e25fCHqF_XSICWRYhGp0-1" target="e25fCHqF_XSICWRYhGp0-21" edge="1">
          <mxGeometry relative="1" as="geometry" />
        </mxCell>
        <mxCell id="e25fCHqF_XSICWRYhGp0-28" value="Employer Persona" style="edgeLabel;html=1;align=center;verticalAlign=middle;resizable=0;points=[];fontSize=11;fontFamily=Helvetica;fontColor=default;fontStyle=1" parent="e25fCHqF_XSICWRYhGp0-18" vertex="1" connectable="0">
          <mxGeometry x="0.2519" relative="1" as="geometry">
            <mxPoint y="-31" as="offset" />
          </mxGeometry>
        </mxCell>
        <mxCell id="e25fCHqF_XSICWRYhGp0-11" value="Employee Management" style="rounded=0;whiteSpace=wrap;html=1;fillColor=#dae8fc;strokeColor=#6c8ebf;" parent="1" vertex="1">
          <mxGeometry x="-125.75" y="378.5" width="156.5" height="43" as="geometry" />
        </mxCell>
        <mxCell id="e25fCHqF_XSICWRYhGp0-13" value="Employee Services" style="rounded=0;whiteSpace=wrap;html=1;labelPosition=center;verticalLabelPosition=bottom;align=center;verticalAlign=top;fillColor=#FFFFFF;strokeColor=#b85450;" parent="1" vertex="1">
          <mxGeometry x="-360" y="360" width="190" height="200" as="geometry" />
        </mxCell>
        <mxCell id="e25fCHqF_XSICWRYhGp0-10" value="Employee Onboarding" style="rounded=0;whiteSpace=wrap;html=1;fillColor=#f8cecc;strokeColor=#b85450;" parent="1" vertex="1">
          <mxGeometry x="-341" y="380" width="150" height="40" as="geometry" />
        </mxCell>
        <mxCell id="e25fCHqF_XSICWRYhGp0-12" value="Payroll " style="rounded=0;whiteSpace=wrap;html=1;fillColor=#f8cecc;strokeColor=#b85450;" parent="1" vertex="1">
          <mxGeometry x="-342" y="440" width="150" height="40" as="geometry" />
        </mxCell>
        <mxCell id="e25fCHqF_XSICWRYhGp0-15" value="Tax Management" style="rounded=0;whiteSpace=wrap;html=1;fillColor=#f8cecc;strokeColor=#b85450;" parent="1" vertex="1">
          <mxGeometry x="-341" y="500" width="150" height="40" as="geometry" />
        </mxCell>
        <mxCell id="e25fCHqF_XSICWRYhGp0-35" style="edgeStyle=orthogonalEdgeStyle;rounded=1;orthogonalLoop=1;jettySize=auto;html=1;labelBackgroundColor=default;fontFamily=Helvetica;fontSize=13;fontColor=#232F3E;endArrow=classic;strokeColor=default;strokeWidth=2;" parent="1" target="e25fCHqF_XSICWRYhGp0-14" edge="1">
          <mxGeometry relative="1" as="geometry">
            <mxPoint x="166" y="230" as="sourcePoint" />
            <Array as="points">
              <mxPoint x="166" y="270" />
              <mxPoint x="166" y="270" />
            </Array>
          </mxGeometry>
        </mxCell>
        <mxCell id="e25fCHqF_XSICWRYhGp0-37" value="Consumer Persona" style="edgeLabel;html=1;align=center;verticalAlign=middle;resizable=0;points=[];fontSize=11;fontFamily=Helvetica;fontColor=#232F3E;fontStyle=1" parent="e25fCHqF_XSICWRYhGp0-35" vertex="1" connectable="0">
          <mxGeometry x="-0.3077" y="2" relative="1" as="geometry">
            <mxPoint x="-2" y="15" as="offset" />
          </mxGeometry>
        </mxCell>
        <mxCell id="e25fCHqF_XSICWRYhGp0-36" value="Service Provider Persona" style="edgeStyle=orthogonalEdgeStyle;rounded=1;orthogonalLoop=1;jettySize=auto;html=1;entryX=0.123;entryY=0;entryDx=0;entryDy=0;labelBackgroundColor=default;fontFamily=Helvetica;fontSize=11;fontColor=#232F3E;endArrow=classic;strokeColor=default;strokeWidth=2;fontStyle=1;entryPerimeter=0;" parent="1" source="e25fCHqF_XSICWRYhGp0-1" target="e25fCHqF_XSICWRYhGp0-16" edge="1">
          <mxGeometry x="-0.2936" y="10" relative="1" as="geometry">
            <mxPoint x="-29.5" y="230" as="sourcePoint" />
            <mxPoint x="164.5" y="380" as="targetPoint" />
            <Array as="points">
              <mxPoint x="-29" y="240" />
              <mxPoint x="117" y="240" />
            </Array>
            <mxPoint as="offset" />
          </mxGeometry>
        </mxCell>
        <mxCell id="e25fCHqF_XSICWRYhGp0-38" value="&lt;font style=&quot;font-size: 14px&quot; color=&quot;#82b366&quot;&gt;Authentication and Authorization Services&lt;/font&gt;" style="rounded=0;whiteSpace=wrap;html=1;fillColor=#FFFFFF;strokeColor=#82b366;strokeWidth=2;labelPosition=center;verticalLabelPosition=bottom;align=center;verticalAlign=top;fontStyle=1;fontColor=#FF3333;" parent="1" vertex="1">
          <mxGeometry x="443" y="190" width="180" height="410" as="geometry" />
        </mxCell>
        <mxCell id="e25fCHqF_XSICWRYhGp0-39" value="Authentication" style="rounded=0;whiteSpace=wrap;html=1;dashed=0;sketch=0;fontFamily=Helvetica;fontSize=11;strokeColor=#82b366;strokeWidth=2;fillColor=#d5e8d4;" parent="1" vertex="1">
          <mxGeometry x="473" y="270" width="120" height="40" as="geometry" />
        </mxCell>
        <mxCell id="e25fCHqF_XSICWRYhGp0-40" value="Authorization" style="rounded=0;whiteSpace=wrap;html=1;dashed=0;sketch=0;fontFamily=Helvetica;fontSize=11;strokeColor=#82b366;strokeWidth=2;fillColor=#d5e8d4;" parent="1" vertex="1">
          <mxGeometry x="473" y="480" width="120" height="40" as="geometry" />
        </mxCell>
        <mxCell id="e25fCHqF_XSICWRYhGp0-41" value="SSO" style="rounded=0;whiteSpace=wrap;html=1;dashed=0;sketch=0;fontFamily=Helvetica;fontSize=11;strokeColor=#82b366;strokeWidth=2;fillColor=#d5e8d4;" parent="1" vertex="1">
          <mxGeometry x="473" y="372.5" width="120" height="40" as="geometry" />
        </mxCell>
        <mxCell id="e25fCHqF_XSICWRYhGp0-42" value="Risk Assessment" style="rounded=0;whiteSpace=wrap;html=1;dashed=0;sketch=0;fontFamily=Helvetica;fontSize=11;strokeColor=#82b366;strokeWidth=2;fillColor=#d5e8d4;" parent="1" vertex="1">
          <mxGeometry x="473" y="421.5" width="120" height="40" as="geometry" />
        </mxCell>
        <mxCell id="e25fCHqF_XSICWRYhGp0-46" value="Login UI" style="rounded=0;whiteSpace=wrap;html=1;dashed=0;sketch=0;fontFamily=Helvetica;fontSize=11;strokeColor=#82b366;strokeWidth=2;fillColor=#d5e8d4;" parent="1" vertex="1">
          <mxGeometry x="473" y="220" width="120" height="40" as="geometry" />
        </mxCell>
        <mxCell id="yVPgGkp0cXZ_G8Fahzny-1" value="Multi-Factor" style="rounded=0;whiteSpace=wrap;html=1;dashed=0;sketch=0;fontFamily=Helvetica;fontSize=11;strokeColor=#82b366;strokeWidth=2;fillColor=#d5e8d4;" vertex="1" parent="1">
          <mxGeometry x="473" y="320" width="120" height="40" as="geometry" />
        </mxCell>
        <mxCell id="e25fCHqF_XSICWRYhGp0-43" style="edgeStyle=orthogonalEdgeStyle;rounded=1;orthogonalLoop=1;jettySize=auto;html=1;labelBackgroundColor=default;fontFamily=Helvetica;fontSize=11;fontColor=#232F3E;endArrow=classic;strokeColor=default;strokeWidth=2;startArrow=none;startFill=0;" parent="1" edge="1">
          <mxGeometry relative="1" as="geometry">
            <mxPoint x="280" y="500" as="sourcePoint" />
            <mxPoint x="473" y="500" as="targetPoint" />
            <Array as="points">
              <mxPoint x="280" y="500" />
              <mxPoint x="473" y="500" />
            </Array>
          </mxGeometry>
        </mxCell>
        <mxCell id="e25fCHqF_XSICWRYhGp0-48" value="Access Checks (AuthZ)" style="edgeLabel;html=1;align=center;verticalAlign=middle;resizable=0;points=[];fontSize=12;fontFamily=Helvetica;fontColor=#333333;fontStyle=1" parent="e25fCHqF_XSICWRYhGp0-43" vertex="1" connectable="0">
          <mxGeometry x="-0.2826" y="1" relative="1" as="geometry">
            <mxPoint x="21" y="-9" as="offset" />
          </mxGeometry>
        </mxCell>
        <mxCell id="yVPgGkp0cXZ_G8Fahzny-2" value="User Management" style="rounded=0;whiteSpace=wrap;html=1;dashed=0;sketch=0;fontFamily=Helvetica;fontSize=11;strokeColor=#82b366;strokeWidth=2;fillColor=#d5e8d4;" vertex="1" parent="1">
          <mxGeometry x="473" y="530" width="120" height="40" as="geometry" />
        </mxCell>
        <mxCell id="yVPgGkp0cXZ_G8Fahzny-3" value="User Mgmt." style="edgeStyle=orthogonalEdgeStyle;rounded=1;orthogonalLoop=1;jettySize=auto;html=1;fontSize=11;fontColor=#232F3E;exitX=1.003;exitY=0.815;exitDx=0;exitDy=0;exitPerimeter=0;strokeWidth=2;startArrow=none;startFill=0;" edge="1" parent="1" source="e25fCHqF_XSICWRYhGp0-9" target="yVPgGkp0cXZ_G8Fahzny-2">
          <mxGeometry relative="1" as="geometry" />
        </mxCell>
        <mxCell id="yVPgGkp0cXZ_G8Fahzny-4" value="" style="rounded=0;whiteSpace=wrap;html=1;fontSize=14;fontColor=#FF3333;dashed=1;dashPattern=1 2;" vertex="1" parent="1">
          <mxGeometry x="275" y="10" width="315" height="120" as="geometry" />
        </mxCell>
        <mxCell id="yVPgGkp0cXZ_G8Fahzny-6" value="&lt;font color=&quot;#1a1a1a&quot;&gt;Key:&amp;nbsp;&lt;/font&gt;" style="text;html=1;strokeColor=none;fillColor=none;align=left;verticalAlign=middle;whiteSpace=wrap;rounded=0;fontSize=14;fontColor=#FF3333;fontStyle=1" vertex="1" parent="1">
          <mxGeometry x="275" y="10" width="110" height="30" as="geometry" />
        </mxCell>
        <mxCell id="yVPgGkp0cXZ_G8Fahzny-7" value="&lt;font style=&quot;font-size: 21px&quot;&gt;Logical Business Services Diagram&amp;nbsp;&lt;/font&gt;" style="text;html=1;strokeColor=none;fillColor=none;align=center;verticalAlign=middle;whiteSpace=wrap;rounded=0;dashed=1;dashPattern=1 2;fontSize=14;fontColor=#1A1A1A;" vertex="1" parent="1">
          <mxGeometry x="-390" y="20" width="580" height="30" as="geometry" />
        </mxCell>
        <mxCell id="yVPgGkp0cXZ_G8Fahzny-8" value="" style="rounded=0;whiteSpace=wrap;html=1;fontSize=12;fontColor=#FF3333;verticalAlign=top;fillColor=#FFFFFF;strokeColor=#82b366;strokeWidth=2;fontStyle=1;" vertex="1" parent="1">
          <mxGeometry x="280" y="45" width="60" height="20" as="geometry" />
        </mxCell>
        <mxCell id="yVPgGkp0cXZ_G8Fahzny-9" value="&lt;font color=&quot;#1a1a1a&quot;&gt;System in scope. Existing Authentication and Authorization Platform&amp;nbsp;&lt;/font&gt;" style="text;html=1;strokeColor=none;fillColor=none;align=left;verticalAlign=middle;whiteSpace=wrap;rounded=0;fontSize=14;fontColor=#FF3333;fontStyle=1" vertex="1" parent="1">
          <mxGeometry x="350" y="40" width="230" height="40" as="geometry" />
        </mxCell>
        <mxCell id="yVPgGkp0cXZ_G8Fahzny-10" value="" style="rounded=0;whiteSpace=wrap;html=1;fontSize=14;fontColor=#333333;verticalAlign=top;fillColor=#FFFFFF;strokeColor=#663300;strokeWidth=2;fontStyle=1;" vertex="1" parent="1">
          <mxGeometry x="280" y="92" width="60" height="20" as="geometry" />
        </mxCell>
        <mxCell id="yVPgGkp0cXZ_G8Fahzny-11" value="&lt;font color=&quot;#1a1a1a&quot;&gt;AnyCompany HR Services Platform&lt;/font&gt;" style="text;html=1;strokeColor=none;fillColor=none;align=left;verticalAlign=middle;whiteSpace=wrap;rounded=0;fontSize=14;fontColor=#FF3333;fontStyle=1" vertex="1" parent="1">
          <mxGeometry x="350" y="93" width="220" height="19" as="geometry" />
        </mxCell>
      </root>
    </mxGraphModel>
  </diagram>
</mxfile>
